#!OML:ASF I:\Random Stuff\random\construction\7_22_03\Session 2\subj1.ASF
:FULLY-SPECIFIED
:DEGREES
1353
root 4.74799 17.2464 -10.6209 39.9015 -11.264 -11.0724
lowerback 34.8272 -0.692821 -6.47561
upperback 13.1263 -3.73294 -9.30692
thorax -3.44787 -1.7309 -5.13098
lowerneck -12.7857 -5.46968 -11.9198
upperneck 30.6913 -5.0856 2.00746
head 12.7749 -3.30405 2.07203
rclavicle -2.22639e-014 -2.93207e-014
rhumerus -24.5668 2.9787 -47.1735
rradius 127.666
rwrist 10.5587
rhand -13.9764 26.1598
rfingers 7.12502
rthumb 12.1519 -3.46732
lclavicle -2.22639e-014 -2.93207e-014
lhumerus 36.2142 -55.4626 61.7304
lradius 84.7964
lwrist 93.9284
lhand -12.8765 47.2455
lfingers 7.12502
lthumb -166.788 1336.81
rfemur -54.0347 -5.41416 43.7376
rtibia 15.3172
rfoot -2.468 8.92542
rtoes -23.4474
lfemur -60.2178 6.54644 2.52658
ltibia 39.3689
lfoot -13.3945 4.49795
ltoes -32.6768
1354
root 4.74866 17.2465 -10.6207 39.8693 -11.2657 -11.049
lowerback 34.8624 -0.679263 -6.46551
upperback 13.1238 -3.71559 -9.28256
thorax -3.46077 -1.72265 -5.11576
lowerneck -12.7845 -5.44488 -11.9571
upperneck 30.6924 -5.04568 2.02045
head 12.7738 -3.28935 2.08955
rclavicle 1.27222e-014 4.86029e-014
rhumerus -24.6482 2.73318 -47.092
rradius 127.711
rwrist 10.8118
rhand -12.7195 25.7053
rfingers 7.12502
rthumb 13.3636 -3.84614
lclavicle 1.27222e-014 4.86029e-014
lhumerus 36.1442 -55.4763 61.8476
lradius 84.719
lwrist 93.9002
lhand -12.7378 47.2404
lfingers 7.12502
lthumb -166.654 1336.79
rfemur -54.021 -5.42359 43.6948
rtibia 15.3407
rfoot -2.48098 8.89346
rtoes -23.6018
lfemur -60.1863 6.52582 2.4931
ltibia 39.3562
lfoot -13.4707 4.51261
ltoes -32.4275
1355
root 4.7494 17.2482 -10.62 39.841 -11.2661 -11.0276
lowerback 34.8972 -0.704475 -6.45118
upperback 13.1249 -3.74465 -9.27882
thorax -3.47441 -1.73562 -5.10895
lowerneck -12.8186 -5.39903 -12.0187
upperneck 30.6454 -4.97623 2.06272
head 12.759 -3.26001 2.12606
rclavicle 3.18055e-014 9.18385e-014
rhumerus -24.6607 2.51566 -47.0653
rradius 127.756
rwrist 10.9766
rhand -12.8215 27.5239
rfingers 7.12502
rthumb 13.2652 -2.03396
lclavicle 3.18055e-014 9.18385e-014
lhumerus 36.0442 -55.4054 61.9164
lradius 84.6667
lwrist 94.0682
lhand -12.6576 47.1943
lfingers 7.12502
lthumb -166.577 1336.74
rfemur -54.0353 -5.41871 43.6394
rtibia 15.4242
rfoot -2.48966 8.82733
rtoes -23.6017
lfemur -60.1412 6.49103 2.48116
ltibia 39.311
lfoot -13.5031 4.51186
ltoes -32.1292
1356
root 4.74994 17.2497 -10.6197 39.8144 -11.2605 -11.0072
lowerback 34.9227 -0.739333 -6.43809
upperback 13.1321 -3.78387 -9.27551
thorax -3.47862 -1.75365 -5.09877
lowerneck -12.8581 -5.36883 -12.046
upperneck 30.5883 -4.92118 2.05555
head 12.7399 -3.23851 2.13529
rclavicle 2.54444e-014 4.51241e-014
rhumerus -24.6788 2.34359 -47.0735
rradius 127.82
rwrist 11.0109
rhand -13.0881 28.0332
rfingers 7.12502
rthumb 13.0082 -1.54124
lclavicle 2.54444e-014 4.51241e-014
lhumerus 35.9812 -55.3313 61.948
lradius 84.6898
lwrist 94.0077
lhand -12.5677 47.1381
lfingers 7.12502
lthumb -166.49 1336.68
rfemur -54.0823 -5.42211 43.5972
rtibia 15.5584
rfoot -2.53473 8.76889
rtoes -23.5838
lfemur -60.0948 6.45388 2.48704
ltibia 39.2374
lfoot -13.4623 4.45526
ltoes -31.613
1357
root 4.75016 17.2576 -10.6212 39.7843 -11.2624 -10.9941
lowerback 34.9442 -0.745791 -6.42284
upperback 13.1417 -3.78765 -9.26729
thorax -3.47654 -1.75524 -5.09666
lowerneck -12.8582 -5.36056 -12.04
upperneck 30.5359 -4.90327 2.02771
head 12.7159 -3.23185 2.12608
rclavicle 3.18055e-015 -3.8763e-014
rhumerus -24.771 2.14524 -47.0287
rradius 127.952
rwrist 10.9166
rhand -13.2533 28.0288
rfingers 7.12502
rthumb 12.8491 -1.55569
lclavicle 3.18055e-015 -3.8763e-014
lhumerus 35.9933 -55.3381 61.9194
lradius 84.7112
lwrist 93.8669
lhand -12.4993 47.093
lfingers 7.12502
lthumb -166.424 1336.63
rfemur -54.0776 -5.32963 43.406
rtibia 15.6875
rfoot -2.35263 8.61961
rtoes -21.0715
lfemur -60.0282 6.45218 2.46385
ltibia 39.148
lfoot -13.411 4.3891
ltoes -31.2946
